<svg width="300" height="300" viewBox="0 0 300 300" fill="none" xmlns="http://www.w3.org/2000/svg">
<g clip-path="url(#clip0_24_2)">
<circle cx="150" cy="150" r="150" fill="#FF9C54"/>
<circle cx="150" cy="150" r="150" fill="url(#paint0_linear_24_2)" fill-opacity="0.1"/>
<path d="M149.362 33.8298C176.125 45.2999 178.079 73.31 176.18 81.0251C177.061 81.2475 177.936 81.4837 178.803 81.7336C178.354 81.7127 177.901 81.7022 177.447 81.7022C161.936 81.7022 149.362 93.9905 149.362 109.149C149.362 124.307 161.936 136.596 177.447 136.596C192.958 136.596 205.532 124.307 205.532 109.149C205.532 101.471 202.306 94.5297 197.107 89.5484C220.603 103.212 235.532 127.73 235.532 152.553C235.532 189.921 200.772 222.128 163.404 222.128C160.721 222.128 158.037 221.981 155.368 221.696C170.793 219.187 182.553 206.046 182.553 190.213C182.553 172.587 167.979 158.298 150 158.298C132.021 158.298 118.723 171.31 118.723 188.936C117.447 234.894 178.085 241.915 224.043 217.021C149.362 314.043 9.57462 204.894 79.1492 117.447C79.1492 142.557 83.4955 156.9 89.5457 165.916C89.0057 162.815 88.7234 159.633 88.7234 156.383C88.7234 128.561 91.9082 98.9986 118.828 85.7117C118.344 85.5969 118.085 85.5319 118.085 85.5319C118.085 85.5319 152.553 73.4043 149.362 33.8298Z" fill="black"/>
</g>
<defs>
<linearGradient id="paint0_linear_24_2" x1="150" y1="0" x2="150" y2="300" gradientUnits="userSpaceOnUse">
<stop stop-color="#D2D2D2"/>
<stop offset="1" stop-color="#676767"/>
</linearGradient>
<clipPath id="clip0_24_2">
<rect width="300" height="300" fill="white"/>
</clipPath>
</defs>
</svg>
