<svg width="300" height="300" viewBox="0 0 300 300" fill="none" xmlns="http://www.w3.org/2000/svg">
<g clip-path="url(#clip0_24_2)">
<circle cx="150" cy="150" r="150" fill="#63BB5B"/>
<circle cx="150" cy="150" r="150" fill="url(#paint0_linear_24_2)" fill-opacity="0.1"/>
<path fill-rule="evenodd" clip-rule="evenodd" d="M94.6688 245.213C131.786 265.968 179.571 258.004 207.73 224.117C254.469 167.872 225.319 63.8298 225.319 63.8298C225.351 64.1219 222.851 64.0426 218.422 63.9022C193.821 63.1222 109.694 60.4548 69.2914 109.075C41.0751 143.029 42.0524 191.591 69.4105 224.284L87.8932 205.019L87.8933 126.566C87.8933 124.875 89.1838 123.464 90.8677 123.313C92.5605 123.161 94.0866 124.334 94.3767 126.008L104.979 187.209L136.841 153.998C136.792 153.61 136.769 153.212 136.774 152.804L137.327 105.829C137.349 104.023 138.733 102.527 140.532 102.366C142.325 102.205 143.951 103.425 144.297 105.193L150.982 139.258L193.225 95.227C195.01 93.3663 197.935 93.2175 199.9 94.8875C201.852 96.5467 202.186 99.4337 200.666 101.496L164.15 151.005L199.317 151.005C201.11 151.005 202.615 152.358 202.806 154.141C202.998 155.941 201.789 157.592 200.015 157.952L152.477 167.6C152.262 167.644 152.047 167.679 151.833 167.706L125.027 204.052L186.208 203.51C187.814 203.496 189.168 204.702 189.339 206.298C189.513 207.929 188.395 209.417 186.78 209.703L113.111 222.737C112.446 222.855 111.787 222.9 111.142 222.877L94.6688 245.213Z" fill="black"/>
</g>
<defs>
<linearGradient id="paint0_linear_24_2" x1="150" y1="0" x2="150" y2="300" gradientUnits="userSpaceOnUse">
<stop stop-color="#D2D2D2"/>
<stop offset="1" stop-color="#676767"/>
</linearGradient>
<clipPath id="clip0_24_2">
<rect width="300" height="300" fill="white"/>
</clipPath>
</defs>
</svg>
