<svg width="300" height="300" viewBox="0 0 300 300" fill="none" xmlns="http://www.w3.org/2000/svg">
<g clip-path="url(#clip0_24_2)">
<circle cx="150" cy="150" r="150" fill="#74CEC0"/>
<circle cx="150" cy="150" r="150" fill="url(#paint0_linear_24_2)" fill-opacity="0.1"/>
<path d="M91.9148 109.787V47.8723L144.255 81.0638V139.787L91.9148 109.787Z" fill="black"/>
<path d="M208.723 47.8723L155.106 81.0638V139.787L208.723 109.787V47.8723Z" fill="black"/>
<path d="M213.83 120.638L162.766 150L213.83 179.362L266.17 150L213.83 120.638Z" fill="black"/>
<path d="M155.106 220.213V161.489L208.723 191.489V250.851L155.106 220.213Z" fill="black"/>
<path d="M91.9148 191.489L144.255 161.489V220.213L91.9148 250.851V191.489Z" fill="black"/>
<path d="M86.8084 120.638L135.957 150L86.8084 179.362L34.468 150L86.8084 120.638Z" fill="black"/>
</g>
<defs>
<linearGradient id="paint0_linear_24_2" x1="150" y1="0" x2="150" y2="300" gradientUnits="userSpaceOnUse">
<stop stop-color="#D2D2D2"/>
<stop offset="1" stop-color="#676767"/>
</linearGradient>
<clipPath id="clip0_24_2">
<rect width="300" height="300" fill="white"/>
</clipPath>
</defs>
</svg>
