<svg width="1280" height="720" viewBox="0 0 1280 720" fill="none" xmlns="http://www.w3.org/2000/svg">
<g clip-path="url(#clip0_2_8)">
<rect width="1280" height="720" fill="#7BB0D0"/>
<rect y="663" width="1280" height="10" fill="#71A1BD"/>
<rect x="3" y="641" width="1280" height="10" fill="#71A1BD"/>
<rect x="3" y="619" width="1280" height="10" fill="#71A1BD"/>
<rect x="3" y="597" width="1280" height="10" fill="#71A1BD"/>
<rect y="377" width="1280" height="10" fill="#71A1BD"/>
<rect y="575" width="1280" height="10" fill="#71A1BD"/>
<rect x="-3" y="355" width="1280" height="10" fill="#71A1BD"/>
<rect y="553" width="1280" height="10" fill="#71A1BD"/>
<rect x="-3" y="333" width="1280" height="10" fill="#71A1BD"/>
<rect y="531" width="1280" height="10" fill="#71A1BD"/>
<rect x="-3" y="311" width="1280" height="10" fill="#71A1BD"/>
<rect y="509" width="1280" height="10" fill="#71A1BD"/>
<rect x="-3" y="289" width="1280" height="10" fill="#71A1BD"/>
<rect x="3" y="487" width="1280" height="10" fill="#71A1BD"/>
<rect y="267" width="1280" height="10" fill="#71A1BD"/>
<rect x="3" y="465" width="1280" height="10" fill="#71A1BD"/>
<rect y="245" width="1280" height="10" fill="#71A1BD"/>
<rect x="3" y="443" width="1280" height="10" fill="#71A1BD"/>
<rect y="223" width="1280" height="10" fill="#71A1BD"/>
<rect y="421" width="1280" height="10" fill="#71A1BD"/>
<rect x="-3" y="201" width="1280" height="10" fill="#71A1BD"/>
<rect y="399" width="1280" height="10" fill="#71A1BD"/>
<rect x="-3" y="179" width="1280" height="10" fill="#71A1BD"/>
<rect y="158" width="1280" height="10" fill="#71A1BD"/>
<rect y="137" width="1280" height="9" fill="#71A1BD"/>
<rect y="115" width="1280" height="10" fill="#71A1BD"/>
<rect y="94" width="1280" height="10" fill="#71A1BD"/>
<rect x="3" y="72" width="1280" height="10" fill="#71A1BD"/>
<rect x="3" y="51" width="1280" height="10" fill="#71A1BD"/>
<rect x="3" y="30" width="1280" height="9" fill="#71A1BD"/>
<rect x="15" y="15" width="1250" height="690" stroke="#FF3334" stroke-width="30"/>
<path d="M-2.5 165V167.5H0H221.5C254.593 167.5 274.822 157.538 289.551 144.23C296.859 137.627 302.756 130.252 308.157 123.046C309.477 121.284 310.764 119.539 312.032 117.819C315.993 112.444 319.776 107.312 323.877 102.652C329.078 96.7414 333.531 89.7083 338.041 82.5852C338.438 81.957 338.837 81.328 339.236 80.6991C344.205 72.8705 349.381 64.9503 355.962 57.8207C368.98 43.7176 387.685 32.5 421.5 32.5H1280H1282.5V30V0V-2.5H1280H0H-2.5V0V165Z" fill="#FF3334" stroke="#B4292A" stroke-width="5"/>
<rect x="30" y="170" width="5" height="520" fill="#B4292A"/>
<rect x="1245" y="35" width="5" height="650" fill="#B4292A"/>
<rect x="35" y="690" width="4.99995" height="1215" transform="rotate(-90 35 690)" fill="#B4292A"/>
<circle cx="90" cy="82" r="59" fill="#00D1FF" stroke="#B4292A" stroke-width="8"/>
<path d="M78.5833 40.0341L78.5852 40.041C96.1114 35.6508 119.866 46.7548 117.031 53.4496C115.256 57.6433 106.485 57.7875 97.7145 57.9318C92.4641 58.0182 87.2138 58.1045 83.464 59.0596C79.7513 60.1498 75.1905 62.7524 70.6298 65.355C63.0112 69.7025 55.3927 74.0501 51.727 71.3477C45.875 67.0337 60.649 45.3701 77.9645 40.2111L77.9626 40.2043C78.1694 40.1476 78.3766 40.0908 78.5833 40.0341Z" fill="#01FFFF"/>
<circle cx="186.5" cy="52.5" r="17" fill="#FB0505" stroke="#B4292A" stroke-width="5"/>
<path d="M194.282 46.3811C193.625 47.6976 192.085 46.773 190.108 45.7862C188.132 44.7994 186.467 44.1241 187.124 42.8076C187.782 41.4911 189.917 41.2238 191.893 42.2106C193.87 43.1974 194.939 45.0646 194.282 46.3811Z" fill="#FD8D8D"/>
<circle cx="239.5" cy="52.5" r="17" fill="#FCFF16" stroke="#B4292A" stroke-width="5"/>
<path d="M247.282 46.3811C246.625 47.6976 245.085 46.773 243.108 45.7862C241.132 44.7994 239.467 44.1241 240.124 42.8076C240.782 41.4911 242.917 41.2238 244.893 42.2106C246.87 43.1974 247.939 45.0646 247.282 46.3811Z" fill="#E5FB8C"/>
<circle cx="292.5" cy="52.5" r="17" fill="#69FB22" stroke="#B4292A" stroke-width="5"/>
<path d="M300.282 46.3811C299.625 47.6976 298.085 46.773 296.108 45.7862C294.132 44.7994 292.467 44.1241 293.124 42.8076C293.782 41.4911 295.917 41.2238 297.893 42.2106C299.87 43.1974 300.939 45.0646 300.282 46.3811Z" fill="#E5FB8C"/>
</g>
<defs>
<clipPath id="clip0_2_8">
<rect width="1280" height="720" fill="white"/>
</clipPath>
</defs>
</svg>
