<svg width="1100" height="1100" viewBox="0 0 1100 1100" fill="none" xmlns="http://www.w3.org/2000/svg">
<rect width="1100" height="1100" fill="url(#paint0_linear_119_28)"/>
<circle cx="175.5" cy="825.5" r="117.5" fill="#4D90D5"/>
<path fill-rule="evenodd" clip-rule="evenodd" d="M175.5 902C205.6 902 230 877.6 230 847.5C230 802.5 175.5 748.5 175.5 748.5C175.5 748.5 121 799 121 847.5C121 877.6 145.4 902 175.5 902ZM181.5 867C190.685 867 198.951 863.069 204.709 856.798C202.613 872.162 189.439 884 173.5 884C156.103 884 142 869.897 142 852.5C142 844.288 145.143 836.81 150.291 831.202C150.099 832.608 150 834.042 150 835.5C150 852.897 164.103 867 181.5 867Z" fill="black"/>
<circle cx="550.5" cy="176.5" r="117.5" fill="#63BB5B"/>
<path fill-rule="evenodd" clip-rule="evenodd" d="M507.157 251.084C536.233 267.341 573.663 261.103 595.722 234.558C632.334 190.5 609.5 109 609.5 109C609.525 109.229 607.567 109.167 604.097 109.057C584.826 108.446 518.927 106.356 487.278 144.442C465.175 171.04 465.941 209.079 487.371 234.689L501.849 219.598L501.85 158.143C501.85 156.819 502.86 155.713 504.18 155.595C505.506 155.476 506.701 156.395 506.928 157.706L515.234 205.647L540.192 179.632C540.154 179.328 540.135 179.016 540.139 178.696L540.573 141.899C540.59 140.485 541.674 139.313 543.083 139.187C544.488 139.061 545.761 140.017 546.033 141.401L551.269 168.085L584.359 133.594C585.757 132.137 588.049 132.02 589.588 133.328C591.117 134.628 591.379 136.89 590.188 138.505L561.584 177.288H589.132C590.536 177.288 591.715 178.347 591.864 179.744C592.015 181.154 591.068 182.447 589.678 182.729L552.44 190.287C552.271 190.321 552.103 190.349 551.936 190.37L530.937 218.841L578.863 218.416C580.121 218.405 581.181 219.35 581.315 220.6C581.452 221.878 580.576 223.043 579.311 223.267L521.604 233.478C521.083 233.57 520.567 233.605 520.061 233.587L507.157 251.084Z" fill="black"/>
<circle cx="924.5" cy="825.5" r="117.5" fill="#FF9C54"/>
<path d="M924 734.5C944.965 743.485 946.495 765.426 945.008 771.47C945.698 771.644 946.383 771.829 947.062 772.025C946.71 772.008 946.356 772 946 772C933.85 772 924 781.626 924 793.5C924 805.374 933.85 815 946 815C958.15 815 968 805.374 968 793.5C968 787.486 965.473 782.048 961.4 778.146C979.806 788.849 991.5 808.055 991.5 827.5C991.5 856.771 964.271 882 935 882C932.898 882 930.796 881.885 928.705 881.662C940.788 879.696 950 869.403 950 857C950 843.193 938.583 832 924.5 832C910.417 832 900 842.193 900 856C899 892 946.5 897.5 982.5 878C924 954 814.5 868.5 869 800C869 819.669 872.405 830.905 877.144 837.967C876.721 835.538 876.5 833.046 876.5 830.5C876.5 808.706 878.995 785.549 900.082 775.141C899.703 775.051 899.5 775 899.5 775C899.5 775 926.5 765.5 924 734.5Z" fill="black"/>
<path d="M490.495 295.749C492.566 292.162 491.337 287.575 487.749 285.505C484.162 283.434 479.575 284.663 477.505 288.251L490.495 295.749ZM235.756 711.442C236.828 715.443 240.941 717.817 244.942 716.744L310.14 699.269C314.141 698.197 316.515 694.084 315.443 690.083C314.371 686.082 310.258 683.708 306.257 684.78L248.303 700.314L232.769 642.36C231.697 638.359 227.584 635.985 223.583 637.057C219.582 638.129 217.208 642.242 218.28 646.243L235.756 711.442ZM477.505 288.251L236.505 705.751L249.495 713.249L490.495 295.749L477.505 288.251Z" fill="#800A0A"/>
<path d="M609.756 289.058C610.828 285.057 614.941 282.683 618.942 283.756L684.14 301.231C688.141 302.303 690.515 306.416 689.443 310.417C688.371 314.418 684.258 316.792 680.257 315.72L622.303 300.186L606.769 358.14C605.697 362.141 601.584 364.515 597.583 363.443C593.582 362.371 591.208 358.258 592.28 354.257L609.756 289.058ZM864.495 704.751C866.566 708.338 865.337 712.925 861.749 714.995C858.162 717.066 853.575 715.837 851.505 712.249L864.495 704.751ZM623.495 287.251L864.495 704.751L851.505 712.249L610.505 294.749L623.495 287.251Z" fill="#7F0A0A"/>
<path d="M310 817.5C305.858 817.5 302.5 820.858 302.5 825C302.5 829.142 305.858 832.5 310 832.5V817.5ZM794.303 830.303C797.232 827.374 797.232 822.626 794.303 819.697L746.574 771.967C743.645 769.038 738.896 769.038 735.967 771.967C733.038 774.896 733.038 779.645 735.967 782.574L778.393 825L735.967 867.426C733.038 870.355 733.038 875.104 735.967 878.033C738.896 880.962 743.645 880.962 746.574 878.033L794.303 830.303ZM310 832.5H789V817.5H310V832.5Z" fill="#7F0A0A"/>
<defs>
<linearGradient id="paint0_linear_119_28" x1="550" y1="0" x2="550" y2="1100" gradientUnits="userSpaceOnUse">
<stop stop-color="#E3F4FE"/>
<stop offset="0.0001" stop-color="#E3F4FE"/>
<stop offset="0.958333" stop-color="#EBF3F8"/>
</linearGradient>
</defs>
</svg>
