<svg width="1100" height="1100" viewBox="0 0 1100 1100" fill="none" xmlns="http://www.w3.org/2000/svg">
<rect width="1100" height="1100" fill="url(#paint0_linear_119_28)"/>
<circle cx="769.5" cy="886.5" r="117.5" fill="#C7B78B"/>
<path d="M697.5 924L692.5 886.5L746.5 828H817L793.5 886.5L724 933L697.5 924Z" fill="black"/>
<path d="M829 828L805 890.5L823.5 914.5L847.5 886.5L829 828Z" fill="black"/>
<path d="M740.5 937.5L796.5 900L815 924L789 953.5L740.5 937.5Z" fill="black"/>
<circle cx="197.5" cy="470.5" r="117.5" fill="#D97746"/>
<path d="M189 409.239L149.5 515.692H284L243 409.239H189Z" fill="black"/>
<path d="M165 432.84H138L107 515.692H134.5L165 432.84Z" fill="black"/>
<circle cx="331.5" cy="886.5" r="117.5" fill="#74CEC0"/>
<path d="M286 855V806.5L327 832.5V878.5L286 855Z" fill="black"/>
<path d="M377.5 806.5L335.5 832.5V878.5L377.5 855V806.5Z" fill="black"/>
<path d="M381.5 863.5L341.5 886.5L381.5 909.5L422.5 886.5L381.5 863.5Z" fill="black"/>
<path d="M335.5 941.5V895.5L377.5 919V965.5L335.5 941.5Z" fill="black"/>
<path d="M286 919L327 895.5V941.5L286 965.5V919Z" fill="black"/>
<path d="M282 863.5L320.5 886.5L282 909.5L241 886.5L282 863.5Z" fill="black"/>
<circle cx="903.5" cy="470.5" r="117.5" fill="#63BB5B"/>
<path fill-rule="evenodd" clip-rule="evenodd" d="M860.157 545.084C889.233 561.341 926.664 555.103 948.722 528.558C985.334 484.5 962.5 403 962.5 403C962.525 403.229 960.567 403.167 957.098 403.057C937.826 402.446 871.927 400.356 840.278 438.442C818.176 465.04 818.941 503.079 840.372 528.689L854.85 513.598L854.85 452.143C854.85 450.819 855.861 449.713 857.18 449.595C858.506 449.476 859.701 450.395 859.928 451.706L868.234 499.647L893.192 473.632C893.154 473.328 893.136 473.016 893.139 472.696L893.573 435.899C893.59 434.485 894.674 433.313 896.083 433.187C897.488 433.061 898.761 434.017 899.033 435.401L904.27 462.085L937.359 427.594C938.758 426.137 941.049 426.02 942.588 427.328C944.117 428.628 944.379 430.89 943.188 432.505L914.585 471.288H942.132C943.536 471.288 944.715 472.347 944.865 473.744C945.015 475.154 944.068 476.447 942.678 476.729L905.44 484.287C905.272 484.321 905.103 484.349 904.936 484.37L883.938 512.841L931.863 512.416C933.121 512.405 934.182 513.35 934.315 514.6C934.452 515.878 933.576 517.043 932.311 517.267L874.604 527.478C874.083 527.57 873.567 527.605 873.062 527.587L860.157 545.084Z" fill="black"/>
<circle cx="550.5" cy="213.5" r="117.5" fill="#FF9C54"/>
<path d="M550 122.5C570.965 131.485 572.495 153.426 571.008 159.47C571.698 159.644 572.383 159.829 573.062 160.025C572.71 160.008 572.356 160 572 160C559.85 160 550 169.626 550 181.5C550 193.374 559.85 203 572 203C584.15 203 594 193.374 594 181.5C594 175.486 591.473 170.048 587.4 166.146C605.806 176.849 617.5 196.055 617.5 215.5C617.5 244.771 590.271 270 561 270C558.898 270 556.796 269.885 554.705 269.662C566.788 267.696 576 257.403 576 245C576 231.193 564.583 220 550.5 220C536.417 220 526 230.193 526 244C525 280 572.5 285.5 608.5 266C550 342 440.5 256.5 495 188C495 207.669 498.405 218.905 503.144 225.967C502.721 223.538 502.5 221.046 502.5 218.5C502.5 196.706 504.995 173.549 526.082 163.141C525.703 163.051 525.5 163 525.5 163C525.5 163 552.5 153.5 550 122.5Z" fill="black"/>
<path d="M518.634 337.314C519.912 333.374 517.754 329.144 513.814 327.866C509.874 326.588 505.644 328.746 504.366 332.686L518.634 337.314ZM365.819 766.908C367.701 770.598 372.218 772.063 375.908 770.181L436.036 739.508C439.726 737.625 441.191 733.108 439.309 729.419C437.427 725.729 432.91 724.264 429.22 726.146L375.773 753.411L348.508 699.964C346.625 696.274 342.108 694.809 338.419 696.691C334.729 698.573 333.264 703.09 335.146 706.78L365.819 766.908ZM504.366 332.686L365.366 761.186L379.634 765.814L518.634 337.314L504.366 332.686Z" fill="#800A0A"/>
<path d="M871.156 595.244C872.396 591.292 870.197 587.083 866.244 585.844C862.292 584.604 858.083 586.803 856.844 590.756L871.156 595.244ZM804.353 765.473C806.271 769.145 810.802 770.566 814.473 768.647L874.299 737.387C877.97 735.469 879.391 730.938 877.472 727.267C875.554 723.595 871.023 722.174 867.352 724.093L814.174 751.879L786.387 698.701C784.469 695.03 779.938 693.609 776.267 695.528C772.595 697.446 771.174 701.977 773.093 705.648L804.353 765.473ZM856.844 590.756L803.844 759.756L818.156 764.244L871.156 595.244L856.844 590.756Z" fill="#800A0A"/>
<path d="M656.408 282.932C653.056 280.498 648.366 281.241 645.932 284.592C643.498 287.944 644.241 292.634 647.592 295.068L656.408 282.932ZM801.174 403.908C805.265 403.259 808.056 399.417 807.408 395.326L796.84 328.658C796.191 324.567 792.349 321.776 788.258 322.425C784.167 323.073 781.376 326.915 782.025 331.007L791.418 390.267L732.158 399.66C728.067 400.309 725.276 404.151 725.925 408.242C726.573 412.333 730.415 415.124 734.507 414.475L801.174 403.908ZM647.592 295.068L795.592 402.568L804.408 390.432L656.408 282.932L647.592 295.068Z" fill="#800A0A"/>
<path d="M296.094 388.431C292.742 390.864 291.997 395.554 294.431 398.906C296.864 402.258 301.554 403.003 304.906 400.569L296.094 388.431ZM453.907 289.676C454.557 285.585 451.767 281.742 447.676 281.093L381.01 270.511C376.919 269.862 373.077 272.652 372.427 276.742C371.778 280.833 374.568 284.676 378.659 285.325L437.917 294.732L428.511 353.99C427.862 358.081 430.652 361.923 434.742 362.573C438.833 363.222 442.676 360.432 443.325 356.341L453.907 289.676ZM304.906 400.569L450.906 294.569L442.094 282.431L296.094 388.431L304.906 400.569Z" fill="#800A0A"/>
<path d="M642 898.5C646.142 898.5 649.5 895.142 649.5 891C649.5 886.858 646.142 883.5 642 883.5V898.5ZM453.697 885.697C450.768 888.626 450.768 893.374 453.697 896.303L501.426 944.033C504.355 946.962 509.104 946.962 512.033 944.033C514.962 941.104 514.962 936.355 512.033 933.426L469.607 891L512.033 848.574C514.962 845.645 514.962 840.896 512.033 837.967C509.104 835.038 504.355 835.038 501.426 837.967L453.697 885.697ZM642 883.5H459V898.5H642V883.5Z" fill="#800A0A"/>
<path d="M281.368 767.822C282.651 771.761 286.883 773.914 290.822 772.632C294.761 771.349 296.914 767.117 295.632 763.178L281.368 767.822ZM235.901 586.815C232.209 584.937 227.694 586.407 225.815 590.099L195.207 650.26C193.329 653.952 194.799 658.468 198.491 660.346C202.183 662.224 206.698 660.754 208.576 657.062L235.784 603.586L289.26 630.793C292.952 632.671 297.468 631.201 299.346 627.509C301.224 623.817 299.754 619.302 296.062 617.424L235.901 586.815ZM295.632 763.178L239.632 591.178L225.368 595.822L281.368 767.822L295.632 763.178Z" fill="#800A0A"/>
<path d="M430.592 806.432C427.241 808.866 426.498 813.557 428.932 816.908C431.366 820.259 436.057 821.002 439.408 818.568L430.592 806.432ZM807.908 548.174C808.556 544.083 805.765 540.241 801.674 539.592L735.006 529.027C730.915 528.379 727.073 531.17 726.424 535.261C725.776 539.352 728.567 543.194 732.658 543.842L791.919 553.234L782.527 612.494C781.879 616.585 784.67 620.427 788.761 621.076C792.852 621.724 796.694 618.933 797.342 614.842L807.908 548.174ZM439.408 818.568L804.908 553.068L796.092 540.932L430.592 806.432L439.408 818.568Z" fill="#800A0A"/>
<path d="M307.406 541.931C304.054 539.497 299.364 540.242 296.931 543.594C294.497 546.946 295.242 551.636 298.594 554.069L307.406 541.931ZM663.676 816.407C667.767 815.758 670.557 811.915 669.907 807.824L659.325 741.159C658.675 737.068 654.832 734.278 650.742 734.927C646.651 735.577 643.861 739.42 644.51 743.511L653.917 802.769L594.659 812.175C590.568 812.825 587.778 816.668 588.427 820.758C589.077 824.849 592.92 827.639 597.011 826.99L663.676 816.407ZM298.594 554.069L658.094 815.069L666.906 802.931L307.406 541.931L298.594 554.069Z" fill="#800A0A"/>
<path d="M774.5 478C778.642 478 782 474.642 782 470.5C782 466.358 778.642 463 774.5 463V478ZM322.697 465.197C319.768 468.126 319.768 472.874 322.697 475.803L370.426 523.533C373.355 526.462 378.104 526.462 381.033 523.533C383.962 520.604 383.962 515.855 381.033 512.926L338.607 470.5L381.033 428.074C383.962 425.145 383.962 420.396 381.033 417.467C378.104 414.538 373.355 414.538 370.426 417.467L322.697 465.197ZM774.5 463H328V478H774.5V463Z" fill="#800A0A"/>
<path d="M722.368 765.819C723.648 769.758 727.88 771.913 731.819 770.632C735.758 769.352 737.913 765.12 736.632 761.181L722.368 765.819ZM593.904 329.317C590.213 327.437 585.696 328.905 583.817 332.596L553.185 392.746C551.305 396.437 552.773 400.953 556.464 402.832C560.155 404.712 564.671 403.244 566.551 399.553L593.78 346.087L647.246 373.315C650.937 375.195 655.453 373.727 657.332 370.036C659.212 366.345 657.744 361.829 654.053 359.949L593.904 329.317ZM736.632 761.181L597.632 333.681L583.368 338.319L722.368 765.819L736.632 761.181Z" fill="#800A0A"/>
<defs>
<linearGradient id="paint0_linear_119_28" x1="550" y1="0" x2="550" y2="1100" gradientUnits="userSpaceOnUse">
<stop stop-color="#E3F4FE"/>
<stop offset="0.0001" stop-color="#E3F4FE"/>
<stop offset="0.958333" stop-color="#EBF3F8"/>
</linearGradient>
</defs>
</svg>
