<svg width="300" height="300" viewBox="0 0 300 300" fill="none" xmlns="http://www.w3.org/2000/svg">
<path d="M285 150C285 185.804 270.777 220.142 245.459 245.459C220.142 270.777 185.804 285 150 285C114.196 285 79.858 270.777 54.5406 245.459C29.2232 220.142 15 185.804 15 150L150 150H285Z" fill="#F1F1F1"/>
<path d="M285 150C285 132.272 281.508 114.717 274.724 98.3377C267.939 81.9588 257.995 67.0765 245.459 54.5406C232.924 42.0047 218.041 32.0606 201.662 25.2763C185.283 18.4919 167.728 15 150 15C132.272 15 114.717 18.4919 98.3377 25.2763C81.9588 32.0607 67.0765 42.0047 54.5406 54.5406C42.0047 67.0765 32.0606 81.9588 25.2763 98.3377C18.4919 114.717 15 132.272 15 150L150 150H285Z" fill="#FF1C1C"/>
<circle cx="150" cy="150" r="125" stroke="black" stroke-width="20"/>
<rect x="18.9" y="141.3" width="262.2" height="16.5" fill="black" stroke="black" stroke-width="3"/>
<circle cx="150.45" cy="152.25" r="32.75" fill="#F1F1F1" stroke="black" stroke-width="20"/>
<path fill-rule="evenodd" clip-rule="evenodd" d="M130.519 283.651C196.003 274.346 246.358 218.054 246.358 150C246.358 81.9464 196.003 25.6539 130.519 16.3494C136.779 15.4601 143.176 15 149.681 15C224.239 15 284.681 75.4416 284.681 150C284.681 224.558 224.239 285 149.681 285C143.176 285 136.779 284.54 130.519 283.651Z" fill="black" fill-opacity="0.2"/>
<rect x="0.5" y="0.5" width="299" height="299" stroke="black"/>
</svg>
