<svg width="300" height="300" viewBox="0 0 300 300" fill="none" xmlns="http://www.w3.org/2000/svg">
<g clip-path="url(#clip0_6_25)">
<circle cx="150" cy="150" r="145" fill="url(#paint0_linear_6_25)" stroke="#D83313" stroke-width="10"/>
<path d="M145.072 21.2221C147.719 16.3285 154.741 16.3285 157.387 21.2221L180.916 64.7312C182.487 67.6367 185.876 69.0484 189.045 68.118L235.637 54.4401C240.907 52.8928 245.825 57.7417 244.352 63.0336L230.866 111.49C230.006 114.579 231.356 117.858 234.141 119.447L277.045 143.92C281.754 146.606 281.754 153.394 277.045 156.08L234.141 180.553C231.356 182.142 230.006 185.421 230.866 188.511L244.352 236.967C245.825 242.259 240.907 247.107 235.637 245.56L189.045 231.882C185.876 230.952 182.487 232.364 180.916 235.269L157.387 278.778C154.741 283.672 147.719 283.672 145.072 278.778L121.543 235.269C119.972 232.364 116.584 230.952 113.414 231.882L66.8224 245.56C61.5518 247.107 56.6341 242.259 58.1069 236.967L71.5932 188.511C72.4531 185.421 71.1035 182.142 68.3179 180.553L25.4138 156.08C20.7049 153.394 20.7049 146.606 25.4138 143.92L68.3178 119.447C71.1035 117.858 72.4531 114.579 71.5932 111.49L58.1069 63.0336C56.6341 57.7417 61.5518 52.8928 66.8224 54.4401L113.414 68.118C116.584 69.0484 119.972 67.6367 121.543 64.7312L145.072 21.2221Z" fill="url(#paint1_linear_6_25)"/>
<path d="M146.828 35.2199C148.716 31.7151 153.743 31.7151 155.631 35.2199L177.602 76.0018C178.723 78.0833 181.149 79.0948 183.417 78.4265L226.923 65.606C230.687 64.4969 234.203 67.957 233.155 71.738L220.582 117.084C219.971 119.287 220.932 121.623 222.915 122.759L262.914 145.661C266.268 147.581 266.268 152.419 262.914 154.339L222.915 177.241C220.932 178.377 219.971 180.713 220.582 182.916L233.155 228.262C234.203 232.043 230.687 235.503 226.923 234.394L183.417 221.574C181.149 220.905 178.723 221.917 177.602 223.998L155.631 264.78C153.743 268.285 148.716 268.285 146.828 264.78L124.857 223.998C123.735 221.917 121.31 220.905 119.042 221.574L75.5358 234.394C71.7721 235.503 68.2559 232.043 69.3042 228.262L81.8772 182.916C82.4879 180.713 81.5271 178.377 79.5434 177.241L39.5453 154.339C36.1912 152.419 36.1912 147.581 39.5453 145.661L79.5434 122.759C81.5271 121.623 82.4879 119.287 81.8772 117.084L69.3042 71.738C68.2559 67.957 71.7721 64.4969 75.5358 65.606L119.042 78.4265C121.31 79.0948 123.735 78.0833 124.857 76.0018L146.828 35.2199Z" fill="url(#paint2_linear_6_25)"/>
<path d="M151.229 61.4753L171.358 99.2926L211.218 87.4036L199.824 128.996L236.066 150L199.824 171.004L211.218 212.596L171.358 200.707L151.229 238.525L131.101 200.707L91.2413 212.596L102.635 171.004L66.3934 150L102.635 128.996L91.2413 87.4036L131.101 99.2926L151.229 61.4753Z" fill="#FFFDCF"/>
<circle cx="120.492" cy="177.049" r="23.5492" fill="#FFFDCF" stroke="#DB2C0E" stroke-width="7"/>
<circle cx="120.492" cy="177.049" r="8.79508" stroke="#DB2C0E" stroke-width="7"/>
<path d="M95.9015 177.049H110.656M145.082 177.049H130.328" stroke="#DB2C0E" stroke-width="7"/>
<circle cx="175.82" cy="119.262" r="24.7787" fill="#FFFDCF" stroke="#D92311" stroke-width="7"/>
<circle cx="175.819" cy="119.262" r="9.35395" stroke="#D92311" stroke-width="7"/>
<path d="M150.111 119.262H165.536M201.527 119.262H186.103" stroke="#D92311" stroke-width="7"/>
<circle cx="151" cy="150" r="145" fill="url(#paint3_linear_6_25)" stroke="#666666" stroke-width="10"/>
<path d="M211.98 245.177C243.76 225.414 264.915 190.177 264.915 150C264.915 103.303 236.338 63.2814 195.718 46.4692L200.037 34.7292C201.366 31.1168 198.286 27.4206 194.493 28.076L156.572 34.6282C152.779 35.2836 151.118 39.7989 153.582 42.756L178.217 72.3199C180.681 75.277 185.422 74.4578 186.751 70.8455L192.262 55.865C229.061 71.2643 254.915 107.613 254.915 150C254.915 185.645 236.631 217.02 208.929 235.257C198.686 242 205.572 249.162 211.98 245.177Z" fill="#666666" stroke="#666666" stroke-width="5"/>
<path d="M89.9476 53.8463C58.551 74.2127 38.0717 109.847 38.8387 150.017C39.7301 196.705 69.0664 236.174 110 252.208L105.906 264.028C104.646 267.665 107.796 271.302 111.576 270.574L149.364 263.299C153.144 262.572 154.719 258.025 152.199 255.116L127.004 226.028C124.484 223.118 119.76 224.028 118.5 227.665L113.276 242.748C76.1897 228.054 49.646 192.205 48.8369 149.826C48.1564 114.187 65.8389 82.4689 93.1875 63.7066C103.3 56.7691 96.2785 49.7396 89.9476 53.8463Z" fill="#666666" stroke="#666666" stroke-width="5"/>
<path fill-rule="evenodd" clip-rule="evenodd" d="M162.852 204.608C192.735 197.786 211.43 168.031 204.608 138.148C197.786 108.265 168.031 89.5701 138.148 96.392C108.265 103.214 89.5701 132.969 96.392 162.852C103.214 192.735 132.969 211.43 162.852 204.608ZM191.595 148.485L175.681 152.118C174.988 162.978 167.265 172.549 156.114 175.095C144.963 177.64 133.851 172.369 128.514 162.885L112.602 166.518C120.208 184.573 139.894 195.117 159.655 190.605C179.417 186.094 192.577 168.053 191.595 148.485ZM188.398 134.482L172.485 138.115C167.147 128.631 156.036 123.36 144.885 125.906C133.734 128.451 126.01 138.022 125.317 148.883L109.405 152.515C108.423 132.947 121.583 114.906 141.344 110.394C161.106 105.883 180.792 116.427 188.398 134.482ZM152.917 161.092C158.767 159.757 162.427 153.932 161.091 148.082C159.756 142.232 153.931 138.573 148.081 139.908C142.232 141.244 138.572 147.068 139.907 152.918C141.243 158.768 147.068 162.428 152.917 161.092Z" fill="#666666"/>
</g>
<defs>
<linearGradient id="paint0_linear_6_25" x1="150" y1="0" x2="150" y2="300" gradientUnits="userSpaceOnUse">
<stop stop-color="#FE241B"/>
<stop offset="1" stop-color="#FD8800"/>
</linearGradient>
<linearGradient id="paint1_linear_6_25" x1="151.23" y1="9.83618" x2="151.23" y2="290.164" gradientUnits="userSpaceOnUse">
<stop stop-color="#E82418"/>
<stop offset="1" stop-color="#EF4410"/>
</linearGradient>
<linearGradient id="paint2_linear_6_25" x1="151.229" y1="27.0492" x2="151.229" y2="272.951" gradientUnits="userSpaceOnUse">
<stop stop-color="#D91F12"/>
<stop offset="1" stop-color="#DC330D"/>
</linearGradient>
<linearGradient id="paint3_linear_6_25" x1="151" y1="0" x2="151" y2="300" gradientUnits="userSpaceOnUse">
<stop stop-color="#CACACA"/>
<stop offset="1" stop-color="#808080"/>
</linearGradient>
<clipPath id="clip0_6_25">
<rect width="300" height="300" fill="white"/>
</clipPath>
</defs>
</svg>
