<svg width="300" height="300" viewBox="0 0 300 300" fill="none" xmlns="http://www.w3.org/2000/svg">
<mask id="path-1-outside-1_6_25" maskUnits="userSpaceOnUse" x="10.8386" y="42.5421" width="288" height="231" fill="black">
<rect fill="white" x="10.8386" y="42.5421" width="288" height="231"/>
<path fill-rule="evenodd" clip-rule="evenodd" d="M24.8386 53.5422L83.3635 53.5421L90.0735 93.8553L95.7542 53.5421L154.126 53.5422L124.869 221.406L56.4312 221.034L24.8386 53.5422ZM257.861 156.647H285.355V146.478C285.355 125.6 277.429 110.266 264.205 100.508C251.479 91.118 235.052 87.7749 219.224 87.7749C200.572 87.7749 186.015 93.7515 176.171 104.191C166.453 114.497 162.362 128.057 162.37 141.399M257.861 156.647C265.932 161.77 273.287 168.076 278.446 176.212C283.977 184.934 287.172 195.72 287.172 209.342C287.172 224.188 282.135 237.892 270.71 247.696C259.495 257.32 243.45 262.046 223.579 262C214.005 261.977 198.567 259.654 185.593 249.912C171.962 239.677 162.581 222.393 164.025 195.847L164.548 186.23H194.293C193.07 185.477 191.807 184.687 190.49 183.843C177.426 175.47 162.381 163.594 162.37 141.4"/>
</mask>
<path fill-rule="evenodd" clip-rule="evenodd" d="M24.8386 53.5422L83.3635 53.5421L90.0735 93.8553L95.7542 53.5421L154.126 53.5422L124.869 221.406L56.4312 221.034L24.8386 53.5422ZM257.861 156.647H285.355V146.478C285.355 125.6 277.429 110.266 264.205 100.508C251.479 91.118 235.052 87.7749 219.224 87.7749C200.572 87.7749 186.015 93.7515 176.171 104.191C166.453 114.497 162.362 128.057 162.37 141.399M257.861 156.647C265.932 161.77 273.287 168.076 278.446 176.212C283.977 184.934 287.172 195.72 287.172 209.342C287.172 224.188 282.135 237.892 270.71 247.696C259.495 257.32 243.45 262.046 223.579 262C214.005 261.977 198.567 259.654 185.593 249.912C171.962 239.677 162.581 222.393 164.025 195.847L164.548 186.23H194.293C193.07 185.477 191.807 184.687 190.49 183.843C177.426 175.47 162.381 163.594 162.37 141.4" fill="#565656" fill-opacity="0.5"/>
<path d="M24.8386 53.5422L24.8386 42.5422L11.5698 42.5422L14.0292 55.581L24.8386 53.5422ZM83.3635 53.5421L94.2142 51.736L92.6839 42.5421L83.3634 42.5421L83.3635 53.5421ZM90.0735 93.8553L79.2228 95.6614L100.966 95.3902L90.0735 93.8553ZM95.7542 53.5421L95.7542 42.5421L86.1956 42.5421L84.8618 52.0072L95.7542 53.5421ZM154.126 53.5422L164.963 55.4309L167.209 42.5422L154.126 42.5422L154.126 53.5422ZM124.869 221.406L124.81 232.406L134.109 232.457L135.706 223.295L124.869 221.406ZM56.4312 221.034L45.6219 223.073L47.3028 231.984L56.3714 232.033L56.4312 221.034ZM257.861 156.647V145.647H220.006L251.966 165.934L257.861 156.647ZM285.355 156.647V167.647H296.355V156.647H285.355ZM264.205 100.508L257.674 109.359L257.674 109.359L264.205 100.508ZM176.171 104.191L168.168 96.6441L168.168 96.6441L176.171 104.191ZM278.446 176.212L287.735 170.32L287.735 170.32L278.446 176.212ZM270.71 247.696L263.547 239.348L263.547 239.348L270.71 247.696ZM223.579 262L223.605 251L223.605 251L223.579 262ZM185.593 249.912L192.198 241.116L192.198 241.116L185.593 249.912ZM164.025 195.847L175.009 196.444L175.009 196.444L164.025 195.847ZM164.548 186.23V175.23H154.131L153.565 185.632L164.548 186.23ZM194.293 186.23V197.23H233.108L200.064 176.866L194.293 186.23ZM190.49 183.843L196.425 174.581L196.425 174.581L190.49 183.843ZM296.355 156.647V146.478H274.355V156.647H296.355ZM296.355 146.478C296.355 122.523 287.089 103.723 270.736 91.6568L257.674 109.359C267.769 116.808 274.355 128.677 274.355 146.478H296.355ZM270.736 91.6568C255.423 80.3581 236.36 76.7749 219.224 76.7749V98.7749C233.744 98.7749 247.534 101.878 257.674 109.359L270.736 91.6568ZM219.224 76.7749C198.153 76.7749 180.475 83.5931 168.168 96.6441L184.174 111.737C191.555 103.91 202.991 98.7749 219.224 98.7749V76.7749ZM168.168 96.6441C156.123 109.418 151.361 125.9 151.37 141.405L173.37 141.392C173.363 130.215 176.783 119.576 184.174 111.737L168.168 96.6441ZM298.172 209.342C298.172 193.909 294.523 181.023 287.735 170.32L269.156 182.103C273.431 188.844 276.172 197.53 276.172 209.342H298.172ZM277.873 256.044C292.193 243.756 298.172 226.739 298.172 209.342H276.172C276.172 221.638 272.077 232.028 263.547 239.348L277.873 256.044ZM223.553 273C245.032 273.05 263.995 267.954 277.874 256.044L263.547 239.348C254.995 246.686 241.868 251.043 223.605 251L223.553 273ZM178.988 258.708C194.531 270.38 212.612 272.974 223.553 273L223.605 251C215.398 250.98 202.602 248.929 192.198 241.116L178.988 258.708ZM153.042 195.249C151.423 225.003 162.073 246.006 178.988 258.708L192.198 241.116C181.852 233.347 173.739 219.783 175.009 196.444L153.042 195.249ZM153.565 185.632L153.042 195.249L175.009 196.444L175.532 186.828L153.565 185.632ZM184.555 193.104C185.937 193.99 187.256 194.815 188.522 195.594L200.064 176.866C198.885 176.139 197.677 175.384 196.425 174.581L184.555 193.104ZM151.37 141.405C151.384 169.742 171.103 184.483 184.555 193.104L196.425 174.581C183.749 166.457 173.378 157.447 173.37 141.394L151.37 141.405ZM83.3634 42.5421L24.8386 42.5422L24.8386 64.5422L83.3635 64.5421L83.3634 42.5421ZM100.924 92.0492L94.2142 51.736L72.5127 55.3482L79.2228 95.6614L100.924 92.0492ZM84.8618 52.0072L79.1811 92.3204L100.966 95.3902L106.647 55.077L84.8618 52.0072ZM154.126 42.5422L95.7542 42.5421L95.7542 64.5421L154.126 64.5422L154.126 42.5422ZM135.706 223.295L164.963 55.4309L143.29 51.6535L114.033 219.517L135.706 223.295ZM56.3714 232.033L124.81 232.406L124.929 210.406L56.4911 210.034L56.3714 232.033ZM14.0292 55.581L45.6219 223.073L67.2406 218.995L35.648 51.5033L14.0292 55.581ZM257.861 167.647H285.355V145.647H257.861V167.647ZM194.293 175.23H164.548V197.23H194.293V175.23ZM287.735 170.32C281.424 160.369 272.662 153.013 263.756 147.36L251.966 165.934C259.201 170.527 265.149 175.783 269.156 182.103L287.735 170.32Z" fill="#565656" fill-opacity="0.5" mask="url(#path-1-outside-1_6_25)"/>
<mask id="path-3-outside-2_6_25" maskUnits="userSpaceOnUse" x="0.258423" y="31" width="288" height="231" fill="black">
<rect fill="white" x="0.258423" y="31" width="288" height="231"/>
<path fill-rule="evenodd" clip-rule="evenodd" d="M14.2584 42L72.7832 42L79.4933 82.3132L85.174 42L143.546 42L114.289 209.864L45.851 209.492L14.2584 42ZM247.281 145.105H274.775V134.936C274.775 114.058 266.849 98.7237 253.625 88.966C240.899 79.5759 224.472 76.2328 208.644 76.2328C189.992 76.2328 175.435 82.2094 165.591 92.6486C155.872 102.955 151.782 116.515 151.789 129.857M247.281 145.105C255.351 150.228 262.706 156.534 267.866 164.669C273.397 173.391 276.592 184.178 276.592 197.799C276.592 212.646 271.555 226.35 260.13 236.154C248.915 245.778 232.87 250.504 212.999 250.458C203.425 250.435 187.986 248.112 175.013 238.37C161.382 228.134 152.001 210.851 153.445 184.305L153.968 174.688H183.713C182.49 173.935 181.227 173.145 179.91 172.3C166.846 163.928 151.801 152.052 151.789 129.858"/>
</mask>
<path fill-rule="evenodd" clip-rule="evenodd" d="M14.2584 42L72.7832 42L79.4933 82.3132L85.174 42L143.546 42L114.289 209.864L45.851 209.492L14.2584 42ZM247.281 145.105H274.775V134.936C274.775 114.058 266.849 98.7237 253.625 88.966C240.899 79.5759 224.472 76.2328 208.644 76.2328C189.992 76.2328 175.435 82.2094 165.591 92.6486C155.872 102.955 151.782 116.515 151.789 129.857M247.281 145.105C255.351 150.228 262.706 156.534 267.866 164.669C273.397 173.391 276.592 184.178 276.592 197.799C276.592 212.646 271.555 226.35 260.13 236.154C248.915 245.778 232.87 250.504 212.999 250.458C203.425 250.435 187.986 248.112 175.013 238.37C161.382 228.134 152.001 210.851 153.445 184.305L153.968 174.688H183.713C182.49 173.935 181.227 173.145 179.91 172.3C166.846 163.928 151.801 152.052 151.789 129.858" fill="black"/>
<path d="M14.2584 42L14.2584 31L0.989609 31.0001L3.44903 44.0389L14.2584 42ZM72.7832 42L83.634 40.1939L82.1037 31L72.7832 31L72.7832 42ZM79.4933 82.3132L68.6426 84.1193L90.3857 83.8481L79.4933 82.3132ZM85.174 42L85.174 31L75.6154 31L74.2816 40.4651L85.174 42ZM143.546 42L154.383 43.8887L156.629 31.0001L143.546 31L143.546 42ZM114.289 209.864L114.229 220.864L123.529 220.915L125.126 211.753L114.289 209.864ZM45.851 209.492L35.0417 211.53L36.7226 220.442L45.7912 220.491L45.851 209.492ZM247.281 145.105V134.105H209.425L241.386 154.392L247.281 145.105ZM274.775 145.105V156.105H285.775V145.105H274.775ZM253.625 88.966L247.094 97.8173L247.094 97.8173L253.625 88.966ZM165.591 92.6486L157.588 85.102L157.588 85.102L165.591 92.6486ZM267.866 164.669L277.155 158.778L277.155 158.778L267.866 164.669ZM260.13 236.154L252.966 227.806L252.966 227.806L260.13 236.154ZM212.999 250.458L213.025 239.458L213.025 239.458L212.999 250.458ZM175.013 238.37L181.618 229.574L181.618 229.574L175.013 238.37ZM153.445 184.305L164.429 184.902L164.429 184.902L153.445 184.305ZM153.968 174.688V163.688H143.55L142.985 174.09L153.968 174.688ZM183.713 174.688V185.688H222.528L189.484 165.323L183.713 174.688ZM179.91 172.3L185.845 163.039L185.845 163.039L179.91 172.3ZM285.775 145.105V134.936H263.775V145.105H285.775ZM285.775 134.936C285.775 110.981 276.509 92.181 260.156 80.1147L247.094 97.8173C257.189 105.266 263.775 117.135 263.775 134.936H285.775ZM260.156 80.1147C244.843 68.816 225.779 65.2328 208.644 65.2328V87.2328C223.164 87.2328 236.954 90.3358 247.094 97.8173L260.156 80.1147ZM208.644 65.2328C187.573 65.2328 169.894 72.051 157.588 85.102L173.594 100.195C180.975 92.3679 192.411 87.2328 208.644 87.2328V65.2328ZM157.588 85.102C145.542 97.8757 140.78 114.357 140.789 129.863L162.789 129.85C162.783 118.673 166.202 108.034 173.594 100.195L157.588 85.102ZM287.592 197.799C287.592 182.367 283.943 169.481 277.155 158.778L258.576 170.561C262.851 177.302 265.592 185.988 265.592 197.799H287.592ZM267.293 244.501C281.613 232.214 287.592 215.196 287.592 197.799H265.592C265.592 210.096 261.497 220.486 252.966 227.806L267.293 244.501ZM212.973 261.458C234.452 261.508 253.414 256.411 267.293 244.501L252.966 227.806C244.415 235.144 231.288 239.501 213.025 239.458L212.973 261.458ZM168.408 247.166C183.951 258.838 202.031 261.432 212.973 261.458L213.025 239.458C204.818 239.438 192.022 237.386 181.618 229.574L168.408 247.166ZM142.461 183.707C140.843 213.461 151.492 234.464 168.408 247.166L181.618 229.574C171.271 221.805 163.159 208.241 164.429 184.902L142.461 183.707ZM142.985 174.09L142.461 183.707L164.429 184.902L164.952 175.285L142.985 174.09ZM173.975 181.562C175.357 182.448 176.676 183.272 177.941 184.052L189.484 165.323C188.304 164.597 187.097 163.841 185.845 163.039L173.975 181.562ZM140.789 129.863C140.804 158.2 160.522 172.941 173.975 181.562L185.845 163.039C173.169 154.915 162.798 145.904 162.789 129.852L140.789 129.863ZM72.7832 31L14.2584 31L14.2584 53L72.7833 53L72.7832 31ZM90.344 80.5071L83.634 40.1939L61.9325 43.8061L68.6426 84.1193L90.344 80.5071ZM74.2816 40.4651L68.6009 80.7783L90.3857 83.8481L96.0664 43.5349L74.2816 40.4651ZM143.546 31L85.174 31L85.174 53L143.546 53L143.546 31ZM125.126 211.753L154.383 43.8887L132.709 40.1113L103.453 207.975L125.126 211.753ZM45.7912 220.491L114.229 220.864L114.349 198.864L45.9109 198.492L45.7912 220.491ZM3.44903 44.0389L35.0417 211.53L56.6604 207.453L25.0678 39.9612L3.44903 44.0389ZM247.281 156.105H274.775V134.105H247.281V156.105ZM183.713 163.688H153.968V185.688H183.713V163.688ZM277.155 158.778C270.844 148.827 262.082 141.471 253.176 135.818L241.386 154.392C248.621 158.985 254.569 164.241 258.576 170.561L277.155 158.778Z" fill="black" mask="url(#path-3-outside-2_6_25)"/>
<path d="M229.782 140.436C231.135 141.204 232.528 141.974 233.964 142.769C234.464 143.046 234.969 143.326 235.48 143.609C238.745 145.421 242.183 147.363 245.543 149.537C252.278 153.895 258.963 159.349 263.923 167.17C268.921 175.052 271.923 184.947 271.923 197.8C271.923 211.56 267.288 223.858 257.089 232.611C247.004 241.265 232.196 245.834 213.01 245.789C204.018 245.768 189.7 243.56 177.817 234.637C165.577 225.446 156.737 209.74 158.107 184.558L158.39 179.357H163.599H200.106C196.934 177.238 193.755 175.317 190.476 173.335C187.872 171.761 185.206 170.149 182.429 168.369C169.538 160.108 156.468 149.448 156.458 129.855L229.782 140.436ZM229.782 140.436H229.885H229.999H230.113H230.227H230.342H230.457H230.572H230.687H230.803H230.919H231.035H231.152H231.268H231.385H231.503H231.62H231.738H231.856H231.974H232.093H232.211H232.33H232.45H232.569H232.689H232.809H232.929H233.049H233.169H233.29H233.411H233.532H233.653H233.775H233.897H234.018H234.141H234.263H234.385H234.508H234.631H234.753H234.877H235H235.123H235.247H235.37H235.494H235.618H235.742H235.867H235.991H236.116H236.24H236.365H236.49H236.615H236.74H236.866H236.991H237.117H237.242H237.368H237.494H237.62H237.746H237.872H237.998H238.124H238.25H238.377H238.503H238.63H238.757H238.883H239.01H239.137H239.264H239.39H239.517H239.644H239.771H239.898H240.025H240.153H240.28H240.407H240.534H240.661H240.788H240.916H241.043H241.17H241.297H241.425H241.552H241.679H241.806H241.934H242.061H242.188H242.315H242.442H242.569H242.696H242.823H242.95H243.077H243.204H243.331H243.458H243.584H243.711H243.838H243.964H244.091H244.217H244.343H244.47H244.596H244.722H244.848H244.974H245.1H245.225H245.351H245.476H245.602H245.727H245.852H245.977H246.102H246.227H246.352H246.476H246.601H246.725H246.849H246.973H247.097H247.221H247.344H247.467H247.591H247.714H247.837H247.959H248.082H248.204H248.327H248.449H248.57H248.692H248.814H248.935H249.056H249.177H249.298H249.418H249.538H249.658H249.778H249.898H250.017H250.136H250.255H250.374H250.492H250.611H250.729H250.846H250.964H251.081H251.198H251.315H251.431H251.548H251.663H251.779H251.895H252.01H252.124H252.239H252.353H252.467H252.581H252.694H252.807H252.92H253.033H253.145H253.257H253.368H253.479H253.59H253.701H253.811H253.921H254.031H254.14H254.249H254.357H254.466H254.574H254.681H254.788H254.895H255.001H255.107H255.213H255.318H255.423H255.528H255.632H255.736H255.839H255.942H256.045H256.147H256.249H256.35H256.451H256.552H256.652H256.752H256.851H256.95H257.049H257.147H257.244H257.342H257.438H257.535H257.631H257.726H257.821H257.915H258.009H258.103H258.196H258.289H258.381H258.473H258.564H258.655H258.745H258.835H258.924H259.013H259.101H259.189H259.276H259.363H259.449H259.535H259.62H259.705H259.789H259.873H259.956H260.038H260.12H260.202H260.283H260.363H260.443H260.522H260.601H260.679H260.757H260.834H260.911H260.987H261.062H261.137H261.211H261.285H261.358H261.43H261.502H261.573H261.644H261.714H261.783H261.852H261.92H261.988H262.055H262.121H262.187H262.252H262.317H262.381H262.444H262.506H262.568H262.63H262.69H262.75H262.809H262.868H262.926H262.983H263.04H263.096H263.151H263.206H263.26H263.313H263.366H263.418H263.469H263.519H263.569H263.618H263.666H263.714H263.761H263.807H263.853H263.897H263.941H263.985H264.027H264.069H264.11H264.15H264.19H264.229H264.267H264.304H264.341H264.377H264.412H264.446H264.48H264.512H264.544H264.575H264.606H270.106V134.936C270.106 115.367 262.751 101.502 250.853 92.7232C239.224 84.1427 223.915 80.902 208.644 80.902C191.022 80.902 177.788 86.5196 168.988 95.852C160.255 105.112 156.451 117.434 156.458 129.854L229.782 140.436ZM26.5249 46.6692L19.8905 46.6692L21.1202 53.1887L48.8852 200.388L49.7257 204.844L54.26 204.868L105.717 205.148L110.367 205.174L111.166 200.593L136.87 53.1136L137.993 46.6692L131.451 46.6692L94.0106 46.6692L89.2312 46.6692L88.5644 51.4017L79.8767 113.054L69.5922 51.2662L68.8271 46.6692L64.1669 46.6692L26.5249 46.6692ZM215.101 208.746L215.101 208.747L215.101 208.747L215.101 208.748L214.996 209.276V209.818C214.996 210.198 214.943 210.405 214.915 210.489C214.824 210.527 214.592 210.599 214.178 210.571C213.566 210.528 213.039 210.286 212.761 210.05C212.642 209.948 212.61 209.884 212.609 209.881L212.608 209.88C212.608 209.879 212.607 209.874 212.606 209.865C212.605 209.856 212.603 209.841 212.603 209.818V189.727C213.815 191.093 214.907 192.515 215.866 194.01L215.963 194.162L215.968 194.169C215.968 194.169 215.968 194.169 215.967 194.169C215.949 194.177 216.153 194.672 216.25 196.045C216.358 197.582 216.291 199.482 216.119 201.444C215.95 203.376 215.694 205.216 215.477 206.583C215.369 207.263 215.273 207.816 215.205 208.194C215.17 208.383 215.143 208.528 215.125 208.622L215.106 208.724L215.102 208.745L215.101 208.746Z" fill="white" stroke="white" stroke-width="11"/>
<path fill-rule="evenodd" clip-rule="evenodd" d="M26.5249 52.1692L54.2899 199.368L105.747 199.648L131.451 52.1692L94.0105 52.1692L80.3283 149.265L64.1669 52.1692L26.5249 52.1692Z" fill="url(#paint0_linear_6_25)"/>
<path fill-rule="evenodd" clip-rule="evenodd" d="M208.644 86.402C175.825 86.402 161.945 107.181 161.959 129.852C161.975 162.909 204.932 166.763 220.496 191.042C223.435 195.026 220.496 209.818 220.496 209.818C220.496 219.062 207.103 217.213 207.103 209.818V184.857H163.599C161.034 232.005 196.41 240.25 213.023 240.289C249.782 240.375 266.423 222.76 266.423 197.8C266.423 150.011 222.036 151.851 208.644 129.852C206.955 127.078 208.644 112.749 208.644 112.749C208.644 108.127 217.426 108.589 217.426 113.674C217.426 118.758 217.426 130.964 217.426 134.936C219.902 134.936 259.489 134.936 264.606 134.936C264.606 98.8822 237.877 86.402 208.644 86.402Z" fill="url(#paint1_linear_6_25)"/>
<defs>
<linearGradient id="paint0_linear_6_25" x1="146.474" y1="52.1692" x2="146.474" y2="240.289" gradientUnits="userSpaceOnUse">
<stop stop-color="#FFBA20"/>
<stop offset="0.619792" stop-color="#FD6405"/>
<stop offset="1" stop-color="#FD5801"/>
</linearGradient>
<linearGradient id="paint1_linear_6_25" x1="191.469" y1="82.8781" x2="242.927" y2="237.253" gradientUnits="userSpaceOnUse">
<stop stop-color="#FFBA20"/>
<stop offset="0.511272" stop-color="#FFA419"/>
<stop offset="0.589173" stop-color="#FD6405"/>
<stop offset="1" stop-color="#FD5801"/>
</linearGradient>
</defs>
</svg>
