<svg width="300" height="300" viewBox="0 0 300 300" fill="none" xmlns="http://www.w3.org/2000/svg">
<mask id="path-1-outside-1_6_25" maskUnits="userSpaceOnUse" x="0.258423" y="31" width="298" height="239" fill="black">
<rect fill="white" x="0.258423" y="31" width="298" height="239"/>
<path fill-rule="evenodd" clip-rule="evenodd" d="M14.2584 42L75.1053 42L82.0815 83.9127L87.9877 42L148.676 42L118.258 216.524L47.1045 216.137L14.2584 42ZM256.526 149.196H285.111V138.623C285.111 116.917 276.871 100.974 263.122 90.8295C249.891 81.0668 232.812 77.591 216.356 77.591C196.964 77.591 181.829 83.8048 171.595 94.6581C161.491 105.373 157.238 119.472 157.246 133.342M256.526 149.196C264.917 154.522 272.564 161.078 277.928 169.536C283.679 178.605 287 189.819 287 203.981C287 219.417 281.763 233.664 269.885 243.857C258.225 253.863 241.543 258.777 220.884 258.728C210.93 258.705 194.879 256.29 181.391 246.161C167.219 235.52 157.466 217.55 158.967 189.951L159.511 179.952H190.436C189.165 179.169 187.852 178.348 186.482 177.47C172.9 168.766 157.258 156.419 157.246 133.343"/>
</mask>
<path fill-rule="evenodd" clip-rule="evenodd" d="M14.2584 42L75.1053 42L82.0815 83.9127L87.9877 42L148.676 42L118.258 216.524L47.1045 216.137L14.2584 42ZM256.526 149.196H285.111V138.623C285.111 116.917 276.871 100.974 263.122 90.8295C249.891 81.0668 232.812 77.591 216.356 77.591C196.964 77.591 181.829 83.8048 171.595 94.6581C161.491 105.373 157.238 119.472 157.246 133.342M256.526 149.196C264.917 154.522 272.564 161.078 277.928 169.536C283.679 178.605 287 189.819 287 203.981C287 219.417 281.763 233.664 269.885 243.857C258.225 253.863 241.543 258.777 220.884 258.728C210.93 258.705 194.879 256.29 181.391 246.161C167.219 235.52 157.466 217.55 158.967 189.951L159.511 179.952H190.436C189.165 179.169 187.852 178.348 186.482 177.47C172.9 168.766 157.258 156.419 157.246 133.343" fill="black"/>
<path d="M14.2584 42L14.2584 31L0.989609 31.0001L3.44903 44.0389L14.2584 42ZM75.1053 42L85.956 40.1939L84.4257 31L75.1053 31L75.1053 42ZM82.0815 83.9127L71.2308 85.7187L92.9739 85.4476L82.0815 83.9127ZM87.9877 42L87.9877 31L78.429 31L77.0953 40.4651L87.9877 42ZM148.676 42L159.512 43.8887L161.759 31.0001L148.676 31L148.676 42ZM118.258 216.524L118.198 227.524L127.498 227.575L129.095 218.413L118.258 216.524ZM47.1045 216.137L36.2951 218.176L37.976 227.087L47.0446 227.137L47.1045 216.137ZM256.526 149.196V138.196H218.671L250.631 158.483L256.526 149.196ZM285.111 149.196V160.196H296.111V149.196H285.111ZM263.122 90.8295L256.591 99.6808L256.591 99.6808L263.122 90.8295ZM171.595 94.6581L163.592 87.1115L163.592 87.1115L171.595 94.6581ZM277.928 169.536L287.217 163.645L287.217 163.645L277.928 169.536ZM269.885 243.857L262.722 235.509L262.722 235.509L269.885 243.857ZM220.884 258.728L220.91 247.728L220.91 247.728L220.884 258.728ZM181.391 246.161L187.996 237.365L187.996 237.365L181.391 246.161ZM158.967 189.951L169.951 190.548L169.951 190.548L158.967 189.951ZM159.511 179.952V168.952H149.094L148.528 179.355L159.511 179.952ZM190.436 179.952V190.952H229.251L196.207 170.588L190.436 179.952ZM186.482 177.47L192.418 168.209L192.418 168.209L186.482 177.47ZM296.111 149.196V138.623H274.111V149.196H296.111ZM296.111 138.623C296.111 113.84 286.531 94.4315 269.653 81.9782L256.591 99.6808C267.211 107.517 274.111 119.994 274.111 138.623H296.111ZM269.653 81.9782C253.835 70.3069 234.12 66.591 216.356 66.591V88.591C231.505 88.591 245.946 91.8267 256.591 99.6808L269.653 81.9782ZM216.356 66.591C194.545 66.591 176.289 73.6463 163.592 87.1115L179.598 102.205C187.37 93.9632 199.383 88.591 216.356 88.591V66.591ZM163.592 87.1115C151.161 100.294 146.237 117.314 146.246 133.349L168.246 133.336C168.239 121.629 171.821 110.452 179.598 102.205L163.592 87.1115ZM298 203.981C298 188.008 294.224 174.694 287.217 163.645L268.638 175.428C273.133 182.515 276 191.629 276 203.981H298ZM277.049 252.205C291.821 239.528 298 221.967 298 203.981H276C276 216.867 271.705 227.8 262.722 235.509L277.049 252.205ZM220.858 269.728C243.125 269.781 262.725 264.497 277.049 252.205L262.722 235.509C253.726 243.229 239.962 247.773 220.91 247.728L220.858 269.728ZM174.786 254.958C190.844 267.015 209.537 269.702 220.858 269.728L220.91 247.728C212.323 247.708 198.915 245.564 187.996 237.365L174.786 254.958ZM147.984 189.353C146.308 220.16 157.33 241.849 174.786 254.958L187.996 237.365C177.109 229.19 168.624 214.94 169.951 190.548L147.984 189.353ZM148.528 179.355L147.984 189.353L169.951 190.548L170.495 180.55L148.528 179.355ZM180.547 186.732C181.982 187.651 183.351 188.507 184.665 189.317L196.207 170.588C194.979 169.831 193.722 169.045 192.418 168.209L180.547 186.732ZM146.246 133.349C146.261 162.567 166.576 177.778 180.547 186.732L192.418 168.209C179.223 159.753 168.255 150.271 168.246 133.338L146.246 133.349ZM75.1053 31L14.2584 31L14.2584 53L75.1053 53L75.1053 31ZM92.9323 82.1066L85.956 40.1939L64.2546 43.8061L71.2308 85.7187L92.9323 82.1066ZM77.0953 40.4651L71.1892 82.3778L92.9739 85.4476L98.88 43.5349L77.0953 40.4651ZM148.676 31L87.9877 31L87.9876 53L148.676 53L148.676 31ZM129.095 218.413L159.512 43.8887L137.839 40.1113L107.421 214.636L129.095 218.413ZM47.0446 227.137L118.198 227.524L118.318 205.524L47.1644 205.137L47.0446 227.137ZM3.44903 44.0389L36.2951 218.176L57.9139 214.098L25.0678 39.9612L3.44903 44.0389ZM256.526 160.196H285.111V138.196H256.526V160.196ZM190.436 168.952H159.511V190.952H190.436V168.952ZM287.217 163.645C280.702 153.371 271.647 145.765 262.421 139.909L250.631 158.483C258.187 163.279 264.426 168.786 268.638 175.428L287.217 163.645Z" fill="black" mask="url(#path-1-outside-1_6_25)"/>
<path d="M208.195 185.025H169.524H164.315L164.033 190.226C162.612 216.343 171.777 232.599 184.437 242.105C196.741 251.345 211.574 253.634 220.896 253.656C240.811 253.703 256.149 248.96 266.582 240.008C277.128 230.957 281.927 218.236 281.927 203.981C281.927 190.654 278.816 180.408 273.644 172.253C268.511 164.159 261.589 158.509 254.601 153.987C251.114 151.73 247.546 149.715 244.151 147.831C243.62 147.537 243.095 147.246 242.576 146.958C240.829 145.992 239.142 145.058 237.51 144.123H237.622H237.738H237.854H237.971H238.088H238.205H238.323H238.44H238.559H238.677H238.796H238.915H239.035H239.154H239.274H239.395H239.515H239.636H239.757H239.879H240H240.122H240.244H240.367H240.489H240.612H240.736H240.859H240.983H241.107H241.231H241.355H241.48H241.605H241.73H241.855H241.98H242.106H242.232H242.358H242.484H242.611H242.738H242.865H242.992H243.119H243.246H243.374H243.502H243.63H243.758H243.886H244.015H244.143H244.272H244.401H244.53H244.659H244.789H244.918H245.048H245.178H245.308H245.438H245.568H245.698H245.828H245.959H246.089H246.22H246.351H246.482H246.613H246.744H246.875H247.006H247.138H247.269H247.401H247.532H247.664H247.795H247.927H248.059H248.191H248.323H248.455H248.587H248.719H248.851H248.983H249.115H249.247H249.38H249.512H249.644H249.776H249.909H250.041H250.173H250.305H250.438H250.57H250.702H250.835H250.967H251.099H251.231H251.363H251.496H251.628H251.76H251.892H252.024H252.156H252.288H252.42H252.551H252.683H252.815H252.947H253.078H253.21H253.341H253.472H253.604H253.735H253.866H253.997H254.128H254.258H254.389H254.52H254.65H254.781H254.911H255.041H255.171H255.301H255.431H255.56H255.69H255.819H255.948H256.077H256.206H256.335H256.464H256.592H256.72H256.848H256.976H257.104H257.232H257.359H257.486H257.614H257.74H257.867H257.994H258.12H258.246H258.372H258.498H258.623H258.748H258.873H258.998H259.123H259.247H259.371H259.495H259.619H259.742H259.865H259.988H260.111H260.233H260.355H260.477H260.599H260.72H260.841H260.962H261.083H261.203H261.323H261.443H261.562H261.681H261.8H261.918H262.037H262.155H262.272H262.389H262.506H262.623H262.739H262.855H262.971H263.086H263.201H263.316H263.43H263.544H263.658H263.771H263.884H263.996H264.108H264.22H264.331H264.443H264.553H264.663H264.773H264.883H264.992H265.101H265.209H265.317H265.424H265.531H265.638H265.744H265.85H265.956H266.061H266.165H266.27H266.373H266.477H266.579H266.682H266.784H266.885H266.986H267.087H267.187H267.287H267.386H267.485H267.583H267.681H267.778H267.875H267.971H268.067H268.162H268.257H268.351H268.445H268.538H268.631H268.724H268.815H268.907H268.997H269.088H269.177H269.266H269.355H269.443H269.531H269.618H269.704H269.79H269.875H269.96H270.044H270.128H270.211H270.293H270.375H270.456H270.537H270.617H270.697H270.776H270.854H270.932H271.009H271.086H271.162H271.237H271.312H271.386H271.459H271.532H271.604H271.676H271.747H271.817H271.887H271.956H272.024H272.092H272.159H272.225H272.291H272.356H272.42H272.484H272.547H272.609H272.671H272.732H272.792H272.852H272.911H272.969H273.026H273.083H273.139H273.195H273.249H273.303H273.356H273.409H273.461H273.512H273.562H273.611H273.66H273.708H273.756H273.802H273.848H273.893H273.937H273.981H274.023H274.065H274.106H274.147H274.186H274.225H274.263H274.3H274.337H274.372H274.407H274.441H274.475H274.507H274.539H280.039V138.623C280.039 118.339 272.419 103.993 260.11 94.9112C248.071 86.0281 232.208 82.6636 216.356 82.6636C198.083 82.6636 184.386 88.4874 175.285 98.1383C166.253 107.717 162.311 120.47 162.319 133.34L208.195 185.025ZM208.195 185.025C204.696 182.66 201.19 180.54 197.571 178.353C194.864 176.716 192.095 175.042 189.219 173.2C175.825 164.616 162.329 153.59 162.319 133.34L208.195 185.025ZM27.0116 47.0727L20.3772 47.0727L21.6069 53.5921L50.4735 206.632L51.314 211.087L55.8483 211.112L109.347 211.403L113.997 211.429L114.796 206.848L141.519 53.517L142.642 47.0727L136.101 47.0727L97.1748 47.0726L92.3955 47.0726L91.7286 51.8052L82.4981 117.31L71.5724 51.6696L70.8073 47.0726L66.1471 47.0726L27.0116 47.0727ZM223.284 215.404L223.284 215.405L223.284 215.406L223.284 215.406L223.179 215.935V216.476C223.179 217.008 223.084 217.25 223.059 217.307C223.053 217.319 223.049 217.328 223.046 217.334C223.045 217.334 223.044 217.335 223.043 217.336C223.035 217.34 223.024 217.347 223.006 217.356C222.972 217.373 222.915 217.397 222.832 217.419C222.66 217.466 222.409 217.498 222.095 217.477C221.417 217.43 220.823 217.162 220.496 216.883C220.254 216.678 220.255 216.581 220.255 216.482V216.476V195.02C221.675 196.576 222.946 198.203 224.048 199.923L224.146 200.075L224.177 200.117C224.174 200.114 224.172 200.112 224.17 200.113C224.151 200.122 224.376 200.655 224.482 202.141C224.596 203.755 224.525 205.743 224.346 207.789C224.169 209.804 223.902 211.722 223.676 213.147C223.564 213.856 223.463 214.433 223.392 214.827C223.378 214.907 223.364 214.98 223.352 215.044C223.335 215.138 223.32 215.215 223.309 215.274L223.289 215.381L223.284 215.403L223.284 215.404Z" fill="white" stroke="white" stroke-width="11"/>
<path fill-rule="evenodd" clip-rule="evenodd" d="M27.0116 52.5727L55.8782 205.612L109.377 205.903L136.101 52.5727L97.1748 52.5726L82.9497 153.521L66.1471 52.5726L27.0116 52.5727Z" fill="url(#paint0_linear_6_25)"/>
<path fill-rule="evenodd" clip-rule="evenodd" d="M216.356 88.1637C182.236 88.1637 167.805 109.767 167.819 133.337C167.836 167.707 212.497 171.713 228.679 196.955C231.734 201.098 228.679 216.476 228.679 216.476C228.679 226.087 214.755 224.165 214.755 216.476V190.525H169.524C166.857 239.543 203.637 248.115 220.909 248.156C259.127 248.246 276.427 229.932 276.427 203.981C276.427 154.297 230.28 156.21 216.356 133.337C214.601 130.454 216.356 115.556 216.356 115.556C216.356 110.75 225.487 111.231 225.487 116.517C225.487 121.804 225.487 134.494 225.487 138.624C228.061 138.624 269.219 138.624 274.539 138.624C274.539 101.139 246.749 88.1637 216.356 88.1637Z" fill="url(#paint1_linear_6_25)"/>
<defs>
<linearGradient id="paint0_linear_6_25" x1="151.72" y1="52.5726" x2="151.72" y2="248.156" gradientUnits="userSpaceOnUse">
<stop stop-color="#FFBA20"/>
<stop offset="0.619792" stop-color="#FD6405"/>
<stop offset="1" stop-color="#FD5801"/>
</linearGradient>
<linearGradient id="paint1_linear_6_25" x1="198.5" y1="84.5" x2="252" y2="245" gradientUnits="userSpaceOnUse">
<stop stop-color="#FFBA20"/>
<stop offset="0.511272" stop-color="#FFA419"/>
<stop offset="0.589173" stop-color="#FD6405"/>
<stop offset="1" stop-color="#FD5801"/>
</linearGradient>
</defs>
</svg>
